<svg version="1.1" xmlns="http://www.w3.org/2000/svg" xmlns:xlink="http://www.w3.org/1999/xlink" x="0px" y="0px" viewBox="0 0 222 31" enable-background="new 0 0 222 31" xml:space="preserve">
<g id="Layer_2">
	<g>
		<defs>
			<path id="SVGID_1_" d="M13.5,26.3c0,0-0.1,0.1,0,0.2c0,0.1,0.2,0.5,0.2,0.5c0.1,0.3,0.3,0.7,0.6,0.9c0.3,0.2,0.5,0.1,0.5,0.1
				c0,0,0.2-0.1,0.2-0.4c-0.1-0.3-0.1-0.4-0.2-0.5c-0.1-0.1-0.1-0.2-0.2-0.2c0,0,0,0.1,0,0.2c0,0.1,0,0.2-0.1,0.2
				c-0.1,0-0.3,0.1-0.5-0.2c-0.1-0.2-0.3-0.5-0.3-0.7C13.6,26.4,13.6,26.3,13.5,26.3C13.5,26.3,13.5,26.3,13.5,26.3 M8.8,27.1l1,0.8
				l1-1.2l-1-0.8L8.8,27.1z M9,25.1l1,0.8l1-1.2l-1-0.8L9,25.1z M15.4,22.2l1.2,0.6l0.6-1.4L16,20.8L15.4,22.2z M9.3,21.2
				c0.5,1.2,1.2,2.2,2.1,2.9c0.1-0.6,0.2-1,0.3-1.3c-0.9-0.6-1.5-1.3-1.9-2L9.3,21.2z M11.6,19.8l1.2,0.6l0.6-1.4l-1.2-0.6
				L11.6,19.8z M5.9,14.3c0,0-0.7,0.5-1,1.2c-0.2,0.4-0.2,0.9-0.1,1.1c0.1,0.2,0.3,0.4,0.7,0.2c0.2-0.2,0.3-0.4,0.4-0.6
				c0-0.1,0-0.2,0-0.3c0-0.1,0-0.1-0.1-0.1c-0.2,0.1-0.1,0.4-0.2,0.5c-0.1,0.1-0.4,0-0.5-0.3c-0.1-0.3,0.2-0.7,0.4-0.9
				C5.7,14.8,6,14.5,6,14.5s0.3-0.2,0.2-0.3c0,0,0,0,0,0C6.1,14.2,5.9,14.3,5.9,14.3 M13.1,13.5c-0.1,0.1-0.5,0.5-0.9,1
				c-0.4,0.4-0.7,0.8-0.8,0.8c-0.2,0.2-0.3,0.4-0.2,0.5l0.1,0.5c0-0.1,0.1-0.3,0.3-0.4c0.1-0.1,0.5-0.6,0.9-1
				c0.4-0.4,0.7-0.8,0.8-0.8c0.2-0.2,0.3-0.4,0.2-0.5l-0.1-0.5C13.3,13.2,13.2,13.4,13.1,13.5 M7.7,8.2c-0.5,0-0.9,0.4-0.9,0.9
				c0,0.5,0.4,0.9,0.9,0.9c0.5,0,0.9-0.4,0.9-0.9C8.6,8.6,8.2,8.2,7.7,8.2L7.7,8.2z M3.3,20.9c0.1-0.5,0.4-0.9,0.9-1.1
				c0.7-0.3,1,0.5,1,0.5c0,0.6-0.5,0.9-1,0.9C3.9,21.3,3.6,21.2,3.3,20.9 M8.8,6.6C8.3,6.6,7.9,7.1,8,7.6c0,0.5,0.4,0.9,0.9,0.9
				c0.3,0,0.5-0.1,0.7-0.3l0,0c0.1,0.7-0.2,1.3-1,2c-0.8,0.7-2.8,1.6-4.1,2.7C2.5,14.3,2,16,1.9,17.3c-0.1,0.6,0,1.4,0.2,2
				c0.2,0.8,0.5,1.4,0.5,1.4s0,0,0,0.1c0,0.9,0,2.4,0.5,3.6c0.7,1.5,1.9,2.8,3.6,2.4c1.8-0.4,2-3.3,2.2-5.4C9,21.2,9.1,21.1,9.2,21
				c0.3-0.2,1-0.9,1.3-1.2c0.2-0.2,0.4-0.4,0.5-0.6c0.1-0.3,0.1-0.6,0.1-0.6l-0.2-1.4c-0.1,0.2-0.3,0.5-0.6,0.8
				c-0.4,0.4-1.3,1.2-1.4,1.2c-0.1,0.1-0.4,0.3-0.5,1.4c-0.3,2.8-0.9,4.2-1.9,4.7c-0.3,0.1-0.6,0.2-0.9,0.2c-1.8,0-2.3-2.3-2.3-3.5
				c0-0.1,0-0.1,0-0.2c0.4,0.6,1.1,1.1,1.8,1c1.3-0.2,0.9-2.3,0.7-2.8c-0.2-0.5-0.7-2-1.7-1.9c-0.7,0-1.1,0.9-1.2,1.7
				c-0.1-0.6-0.2-1.3-0.2-1.8c0.1-1.3,0.5-2.9,2.4-4.4c1.3-1.1,2.8-1.9,3.7-2.6c0.5-0.4,0.9-0.9,1-1.3c-0.1,0.4-0.2,0.9-0.4,1.4
				c-0.8,2-3.1,5.4-3.1,10.1c0,1.5,0.1,2.7,0.4,3.8c0.1-0.1,0.2-0.2,0.4-0.3c-0.2-0.8-0.3-1.6-0.3-2.5c0-4.7,2.3-8,3.1-10
				c0.4-1.1,0.4-1.8,0.4-2.6c0-0.9-0.2-1.9-0.4-2.3C9.5,6.8,9.3,6.6,8.8,6.6L8.8,6.6z M11.1,0.2c-0.5,0.3-0.9,1.1-0.8,2.2
				c0,0.7,0.2,1.5,0.7,2.5c-0.7,1-0.9,1.9-0.5,2.7c0.2,0.7,0.3,0.8,0.5,1.2c0.3,1,0,2.2-0.8,4c-0.6,1.5-1.5,3.1-1.5,5
				c0,0.4,0,0.9,0.1,1.3C8.8,19,9,18.9,9.1,18.7c-0.1-1.5,0.5-3,1.2-4.4c1.1-2,1.2-4,1-5.1c0.8,0.8,2,2,2.8,3.2
				c0.3,0.4,0.4,0.8,0.4,1.2c0,1-0.3,1.7-0.9,2.4c-0.5,0.6-0.3,1.1-0.3,1.2c0,0.2,0.2,0.8,0.4,1.2c0.6-1.1,2.1-1.7,2.8-2.6
				c0.2,1.1-0.7,2.2-1.3,2.9c-0.1,0.2-0.3,0.3-0.5,0.5c-1.2,1.1-2,1.9-2.4,2.6c-0.1,0.2-0.3,0.5-0.4,0.8c-0.1,0.3-0.3,0.9-0.4,2
				c-0.1,0.6-0.2,1.3-0.2,1.7c-0.1,0.7-0.3,1.9-1.2,2.2c-0.1,0-0.1,0-0.1,0v0c-0.9,0.2-1.8-0.5-2.4-1.8c-0.1,0.1-0.3,0.2-0.4,0.3
				c0.9,2.1,2.2,3,3.3,3c0.9,0,1.6-0.4,1.8-1.7c0.1-0.6,0.2-1.4,0.3-2.1c0-0.3,0.2-2.2,0.5-2.9c0.4-0.8,1.2-1.5,2.4-2.8
				c0.8-0.8,1.2-1.4,1.4-2c0.7-1.3-0.2-4.4-0.3-5c0,0,0,0,0,0c0,0,0,0,0,0c0,0,0,0,0,0c-0.3,0.5-0.9,1-1.4,1.4
				c0.3-0.8,0.2-1.4,0.1-1.9v0c0,0,0-0.1,0-0.1l0,0c-0.5-2.1-2.6-3.9-3.6-5c-1.2-1.4-0.8-2.2-0.4-2.8c0.1,0.1,0.2,0.3,0.3,0.4
				c1.7,2.3,4.9,5.9,6.5,9.3c0.4,0.9,0.7,1.7,0.9,2.5c0.7,3.6-1.8,7.2-5.6,6.2h0c0,0,0,0-0.1,0c-0.1,0.3-0.2,0.8-0.3,1.5
				c0.6,0.2,1.2,0.4,1.8,0.4l0,0c0,0,0.1,0,0.1,0c3.1,0,5.5-2.3,5-7.1c0,0-0.2-2-1.2-4.1C17.1,10.6,14,7,12.1,4.6
				c-0.6-0.8-1-1.4-1.1-2c-0.4-1.1-0.1-1.9,0.3-2.3c0.1-0.1,0.2-0.2,0.3-0.2c0.1,0,0-0.1,0-0.1c0,0,0,0,0,0C11.5,0,11.4,0,11.1,0.2"></path>
		</defs>
		<use xlink:href="#SVGID_1_" overflow="visible" fill="#000000"></use>
		<clipPath id="SVGID_2_">
			<use xlink:href="#SVGID_1_" overflow="visible"></use>
		</clipPath>
		<g clip-path="url(#SVGID_2_)">
			<defs>
				<rect id="SVGID_3_" y="-1.1" width="21.8" height="32.1"></rect>
			</defs>
			<use xlink:href="#SVGID_3_" overflow="visible" fill="#000000"></use>
			<clipPath id="SVGID_4_">
				<use xlink:href="#SVGID_3_" overflow="visible"></use>
			</clipPath>
			<rect x="1.8" y="0" clip-path="url(#SVGID_4_)" fill="#000000" width="18.5" height="30"></rect>
		</g>
	</g>
	<path fill="#000000" d="M47.3,21.7h-4.2V11.4h-3.4v13.2h7.6V21.7z M50.4,23.8c0,2-0.7,2.8-2.4,2.3c-0.1,0-0.2-0.1-0.3-0.1l-0.8,2.9
		c0.2,0.1,0.4,0.2,0.6,0.2c3.8,1.4,6.3-0.7,6.3-4.4V11.4h-3.4V23.8z M86.5,19.5h4.4v-2.8h-4.4v-2.4h5.1v-2.9h-8.5v13.2h9v-2.8h-5.6
		V19.5z M98.2,19.5h4.4v-2.8h-4.4v-2.4h5.1v-2.9h-8.5v13.2h9v-2.8h-5.6V19.5z M29.2,11.4l-4.5,13.2h3.4l0.8-2.4h4.4l0.7,2.4h3.6
		L33,11.4H29.2z M29.8,19.2l1.3-4.2l1.3,4.2H29.8z M60.3,11.4l-4.5,13.2h3.4l0.8-2.4h4.4l0.7,2.4h3.6L64,11.4H60.3z M60.9,19.2
		l1.2-4.2l1.2,4.2H60.9z M126.2,11.4h-3.8l-4.5,13.2h3.4l0.8-2.4h4.4l0.7,2.4h3.6L126.2,11.4z M123,19.2l1.3-4.2l1.3,4.2H123z
		 M115.1,19.8c-0.5-1.2-0.7-1.4-1.2-1.6c0.1,0,0.2-0.1,0.2-0.1c1.5-0.7,2.2-2.4,1.6-4.3c-0.5-1.6-1.7-2.4-3.9-2.4h-5.4v13.2h3.4v-5
		h0.8c0.6,0,0.9,0.2,1.2,0.9L112,21l0.1,0.2l1.3,3.4h3.5l-1.7-4.3C115.2,20.1,115.2,20,115.1,19.8 M112.2,16.4
		c-0.2,0.2-0.5,0.3-1.1,0.4h-1.3v-2.5h1c0.1,0,0.2,0,0.2,0c0.5,0,0.7,0.1,1,0.2C112.6,14.9,112.7,15.8,112.2,16.4 M80.1,14.8v-3.4
		H71v2.9h4.7l-4.8,7v3.4h9.4v-2.9h-4.9L80.1,14.8z"></path>
	<g>
		<path fill="#000000" d="M143.6,10.3l5.6,14.2h-1.5l-1.7-4.4h-6.4l-1.7,4.4h-1.4l5.7-14.2H143.6z M145.5,18.9l-2.7-7.3l-2.8,7.3
			H145.5z"></path>
		<path fill="#000000" d="M152.4,10.3l4.9,12.4l4.9-12.4h2v14.2h-1.3V12.2h0l-4.8,12.2h-1.3l-4.9-12.2h0v12.2h-1.3V10.3H152.4z"></path>
		<path fill="#000000" d="M176.8,10.3v1.2h-8.4v5.1h7.9v1.2h-7.9v5.6h8.5v1.2H167V10.3H176.8z"></path>
		<path fill="#000000" d="M185.2,10.3c0.6,0,1.1,0.1,1.7,0.2c0.5,0.1,1,0.4,1.4,0.7c0.4,0.3,0.7,0.7,0.9,1.2c0.2,0.5,0.3,1,0.3,1.7
			c0,0.9-0.2,1.7-0.7,2.3c-0.5,0.7-1.2,1.1-2.1,1.3v0c0.5,0.1,0.8,0.2,1.2,0.4c0.3,0.2,0.6,0.4,0.7,0.7c0.2,0.3,0.3,0.6,0.4,1
			c0.1,0.4,0.1,0.8,0.2,1.2c0,0.2,0,0.5,0,0.9c0,0.3,0,0.7,0.1,1c0,0.4,0.1,0.7,0.2,1c0.1,0.3,0.2,0.6,0.3,0.7h-1.5
			c-0.1-0.1-0.1-0.3-0.2-0.5c0-0.2-0.1-0.4-0.1-0.6c0-0.2,0-0.4,0-0.6c0-0.2,0-0.4,0-0.5c0-0.5-0.1-1-0.1-1.5
			c-0.1-0.5-0.2-0.9-0.4-1.3c-0.2-0.4-0.5-0.7-0.8-0.9c-0.4-0.2-0.9-0.3-1.5-0.3h-5.1v6.3h-1.3V10.3H185.2z M185.1,17
			c0.4,0,0.8-0.1,1.2-0.2c0.4-0.1,0.7-0.3,1-0.5c0.3-0.2,0.5-0.5,0.7-0.9c0.2-0.3,0.2-0.7,0.2-1.2c0-0.9-0.3-1.6-0.8-2.1
			c-0.5-0.5-1.3-0.8-2.3-0.8h-5V17H185.1z"></path>
		<path fill="#000000" d="M193.4,10.3v14.2h-1.4V10.3H193.4z"></path>
		<path fill="#000000" d="M206.2,13.1c-0.3-0.4-0.6-0.8-1-1.1c-0.4-0.3-0.8-0.5-1.3-0.7c-0.5-0.2-1-0.2-1.5-0.2
			c-0.9,0-1.7,0.2-2.4,0.5c-0.7,0.4-1.2,0.8-1.7,1.4c-0.4,0.6-0.7,1.3-1,2c-0.2,0.7-0.3,1.5-0.3,2.3c0,0.8,0.1,1.5,0.3,2.3
			c0.2,0.7,0.5,1.4,1,2c0.4,0.6,1,1.1,1.7,1.4c0.7,0.4,1.5,0.5,2.4,0.5c0.7,0,1.3-0.1,1.8-0.4c0.5-0.2,1-0.6,1.4-1
			c0.4-0.4,0.7-0.9,0.9-1.4c0.2-0.6,0.4-1.1,0.5-1.8h1.3c-0.1,0.9-0.3,1.7-0.6,2.4c-0.3,0.7-0.7,1.3-1.2,1.8
			c-0.5,0.5-1.1,0.9-1.8,1.1c-0.7,0.3-1.4,0.4-2.3,0.4c-1.1,0-2.1-0.2-2.9-0.6c-0.8-0.4-1.5-0.9-2.1-1.6c-0.6-0.7-1-1.5-1.3-2.3
			c-0.3-0.9-0.4-1.8-0.4-2.8c0-1,0.1-1.9,0.4-2.8c0.3-0.9,0.7-1.7,1.3-2.4c0.6-0.7,1.3-1.2,2.1-1.6c0.8-0.4,1.8-0.6,2.9-0.6
			c0.7,0,1.3,0.1,2,0.3c0.6,0.2,1.2,0.5,1.7,0.9c0.5,0.4,1,0.9,1.3,1.4c0.4,0.6,0.6,1.2,0.7,2h-1.4
			C206.6,14.1,206.4,13.6,206.2,13.1z"></path>
		<path fill="#000000" d="M216,10.3l5.6,14.2h-1.4l-1.7-4.4H212l-1.7,4.4h-1.4l5.7-14.2H216z M217.9,18.9l-2.7-7.3l-2.8,7.3H217.9z"></path>
	</g>
</g>
</svg>